<?xml version="1.0" encoding="UTF-8"?>
<svg id="Layer_2" data-name="Layer 2" xmlns="http://www.w3.org/2000/svg" viewBox="0 0 163.57 138">
  <defs>
    <style>
      .cls-1 {
        fill: #b11116;
      }
    </style>
  </defs>
  <g id="Layer_1-2" data-name="Layer 1">
    <g>
      <g>
        <g>
          <path class="cls-1" d="M15.2,90.42v38.55c0,5.11,4.79,9.04,9.9,9.04h58.66c5.12,0,10.75-3.92,10.75-9.04v-38.55H15.2Z"/>
          <path class="cls-1" d="M15.2,91.08v11.14s-.77.19-1.12-.58c-.35-.77.48-2.38-.29-3.54-1.94-2.94-11.81-1.8-11.81-1.8-2.64,0-2.64-3.24,0-3.24h10.98s.98-.54,1.25-.89c.28-.35.98-1.08.98-1.08Z"/>
          <path class="cls-1" d="M94.51,91.08v11.14s.36.19.71-.58c.35-.77,1.05-2.38,1.82-3.54,1.93-2.94,10.69-1.8,13.33-1.8,0,0,2.64-3.24,0-3.24h-14.44s-.57-.54-.85-.89c-.27-.35-.57-1.08-.57-1.08Z"/>
        </g>
        <g>
          <polygon class="cls-1" points="61.49 32.64 16.46 83.49 17.04 88.14 17.17 88.36 66.2 32.99 65.98 32.8 61.49 32.64"/>
          <polygon class="cls-1" points="40.08 56.11 39.23 51.77 39.09 51.55 32.16 59.37 32.37 59.56 36.85 59.75 40.08 56.11"/>
        </g>
      </g>
      <g>
        <path class="cls-1" d="M161.72,13.05c-.56-1.38-1.09-2.63-1.35-3.23-.24-.64-.72-1.91-1.29-3.29-1.99-4.93-2.54-5.33-2.77-5.5l-.03-.02c-.57-.42-1.36-1-2.66-1-.78,0-1.65.2-2.67.61l-32.78,13.24c-2.88,1.17-3.88,3.43-4.68,5.26-.59,1.33-1.05,2.37-2.02,2.76-2.04.83-17,6.73-17.15,6.8-.05.02-.18.06-.32.06-.34-.28-.74-.4-1.17-.35-.14.02-.28.06-.41.11l-.56-1.4-4.68,1.88c-.69.28-1.18.48-1.4,1.01-.19.48-.01.88.08,1.08l6.1,15.11s.03.07.04.1c.08.2.22.61.69.82.15.07.32.1.49.1.35,0,.69-.13,1.22-.35l4.67-1.89-.56-1.4c.14-.06.26-.12.37-.21.35-.26.56-.64.6-1.07.06-.06.19-.14.28-.18.14-.06,15.03-6.21,17.05-7.02.92-.38,2.03.04,3.37.58,1.24.51,2.64,1.08,4.29,1.08.93,0,1.83-.18,2.74-.55l32.79-13.24c3.09-1.25,3.37-2.82,3.57-3.98v-.05c.06-.31.17-.95-1.82-5.88ZM120.85,34.01c-1.05-.43-2.14-.87-3.25-.87-.52,0-1.01.09-1.48.29-1.85.74-14.46,5.95-16.97,6.99l-.07.03c-.13.05-1.19.49-1.37,1.48h-.09c-.15,0-.3-.02-.34-.03l-.61-.14-.13.55-.64.26.52,1.29-2.79,1.13-5.71-14.13,2.79-1.13.52,1.29.64-.25.48.31.35-.52c.07-.11.19-.24.28-.32.28.2.64.3,1.02.3h0c.5,0,.91-.16.98-.19l.34-.13c4.5-1.78,15.13-5.98,16.82-6.66,1.65-.67,2.33-2.21,2.99-3.7.74-1.69,1.51-3.43,3.72-4.32l32.78-13.24c.77-.32,1.44-.48,1.97-.48.75,0,1.16.3,1.63.65h0c.38.39,1.77,3.58,3.17,7.25h-.03s.25.6.25.6l.38.96h.03c1.54,3.6,2.75,6.86,2.75,7.37v.05c-.16.9-.31,1.75-2.48,2.62l-32.78,13.24c-.69.28-1.36.41-2.07.41-1.31,0-2.48-.47-3.61-.94Z"/>
        <path class="cls-1" d="M85.15,55.07c.06,4.95-4.58,8.39-8.69,7.81-4.12-.58-6.89-5.01-6.21-9.9,2.5-17.8,24.81-15.33,24.81-15.33,0,0-10.1,1.49-9.91,17.42Z"/>
      </g>
    </g>
  </g>
</svg>