<?xml version="1.0" encoding="UTF-8"?>
<svg id="Layer_2" data-name="Layer 2" xmlns="http://www.w3.org/2000/svg" viewBox="0 0 23.37 23.63">
  <defs>
    <style>
      .cls-1 {
        fill: #f0f0f0;
      }
    </style>
  </defs>
  <g id="Layer_1-2" data-name="Layer 1">
    <g>
      <path class="cls-1" d="M8.78,18.99c-1.53.64-1.93,2.93-.63,4,1.29,1.32,3.83.44,4.03-1.4.37-1.81-1.72-3.45-3.39-2.6ZM9.87,22.15c-.43-.27-1.03-.51-.93-1.13.23-.73,1.34-.86,1.6-.09.25.55-.35.89-.68,1.22Z"/>
      <path class="cls-1" d="M21.4,13.49c.48.02.95-.29.96-.8.34-2.56.68-5.12.98-7.68.18-.65-.45-1.02-1.01-.97-5.25-.19-10.51-.34-15.77-.54-.35-.79-.67-1.58-1.01-2.36-.16-.29-.29-.74-.69-.74C3.48.22,2.1.06.72,0-.07-.01-.28,1.21.43,1.51c1.22.22,2.46.28,3.69.42,1.65,3.92,3.27,7.84,4.93,11.76-.8.96-2.06,2.01-1.65,3.42.34,1.01,1.57,1.19,2.5,1.16,4.03-.04,8.05.06,12.08-.04.62,0,.77-.68.67-1.16h-.05c-.14-.09-.42-.27-.56-.35-3.43-.07-6.87-.09-10.3.01-.95-.14-1.93-.02-2.88-.13.42-.71.96-1.35,1.53-1.96,3.67-.41,7.35-.73,11.02-1.15ZM7.24,5.15c4.79.14,9.58.36,14.37.45-.19,2.11-.53,4.21-.77,6.32-3.45.34-6.89.77-10.35,1.04-1.07-2.61-2.17-5.21-3.26-7.82Z"/>
      <path class="cls-1" d="M22.61,21.24c-.09-.95-.58-1.91-1.52-2.26-1.42-.69-3.29.44-3.35,2.01-.21,1.5,1.26,2.9,2.75,2.61,1.29-.12,2.02-1.37,2.22-2.53l-.1.18ZM20.53,21.89c-.91.59-1.68-.93-.79-1.42.92-.51,1.72.97.79,1.42Z"/>
    </g>
  </g>
</svg>