<?xml version="1.0" encoding="UTF-8"?>
<svg id="Layer_2" data-name="Layer 2" xmlns="http://www.w3.org/2000/svg" viewBox="0 0 113.34 113.34">
  <defs>
    <style>
      .cls-1 {
        fill: #b11116;
      }
    </style>
  </defs>
  <g id="Layer_1-2" data-name="Layer 1">
    <g>
      <path class="cls-1" d="M34.68,46.2s.89-10.27,2.55-19.31h1.22l.34,18.29c0,.37.31.72.67.72h.05c.37,0,.67-.36.67-.72l1.37-18.29h1.37l1.04,18.29c0,.37.29.72.66.72h.04c.38,0,.66-.36.66-.72l1.04-18.29h1.38l1.02,18.29c0,.37.29.72.67.72h.06c.37,0,.66-.3.66-.66v-18.35h1.5c1.65,9.05,2.88,19.31,2.88,19.31,0,7.47-8.63,11.65-8.64,14.29-.01,1.79,1,20.11,1.71,32.85,2.9.72,5.94,1.13,9.09,1.13,2.56,0,5.08-.26,7.51-.76.71-12.78,1.76-31.46,1.76-33.21,0-2.56-9.06-7.84-9.06-14.24,0,0-1.54-19.2,9.91-19.29,11.44-.08,9.92,19.29,9.92,19.29,0,7.48-8.63,11.6-8.63,14.24,0,1.73.93,18.97,1.62,31.64,14.43-5.32,24.75-19.21,24.75-35.47,0-20.83-16.97-37.77-37.78-37.77S18.89,35.83,18.89,56.66c0,15.68,9.58,29.15,23.22,34.87.7-12.62,1.63-29.37,1.63-31.04,0-2.56-9.06-7.9-9.06-14.29Z"/>
      <path class="cls-1" d="M56.68,0C25.38,0,0,25.38,0,56.66s25.38,56.67,56.68,56.67,56.66-25.37,56.66-56.67S87.97,0,56.68,0ZM69.92,95.42c.33,5.94.54,10.23.54,10.23.48,3.23-2.22,4.47-3.31,4.47-1.23,0-4.01-1.25-3.64-4.47,0,0,.2-3.55.5-8.68-2.38.42-4.84.65-7.33.65-3.07,0-6.05-.33-8.93-.97.3,5.29.52,9,.52,9,.45,3.23-2.23,4.47-3.33,4.47-1.24,0-4.01-1.25-3.63-4.47,0,0,.25-4.56.61-10.77-15.32-5.93-26.19-20.82-26.19-38.21,0-22.58,18.36-40.94,40.96-40.94s40.94,18.36,40.94,40.94c0,17.96-11.61,33.24-27.7,38.76Z"/>
    </g>
  </g>
</svg>