<?xml version="1.0" encoding="UTF-8"?>
<svg id="Layer_2" data-name="Layer 2" xmlns="http://www.w3.org/2000/svg" viewBox="0 0 15.52 15.52">
  <defs>
    <style>
      .cls-1 {
        fill: #f0f0f0;
      }
    </style>
  </defs>
  <g id="Layer_1-2" data-name="Layer 1">
    <path class="cls-1" d="M15.22,13.74l-4.2-4.2c.71-1.01,1.1-2.22,1.1-3.48,0-1.62-.63-3.14-1.77-4.28-1.14-1.14-2.66-1.77-4.28-1.77S2.92.63,1.77,1.77C.63,2.92,0,4.44,0,6.06s.63,3.14,1.77,4.28c1.14,1.14,2.66,1.77,4.28,1.77,1.27,0,2.47-.39,3.49-1.1l4.2,4.2c.41.41,1.07.41,1.47,0,.2-.2.3-.47.3-.74s-.1-.53-.3-.74ZM6.06,10.71c-2.57,0-4.65-2.08-4.65-4.65S3.49,1.41,6.06,1.41s4.65,2.08,4.65,4.65-2.08,4.65-4.65,4.65Z"/>
  </g>
</svg>