<?xml version="1.0" encoding="UTF-8"?>
<svg id="Layer_2" data-name="Layer 2" xmlns="http://www.w3.org/2000/svg" viewBox="0 0 128.59 110.4">
  <defs>
    <style>
      .cls-1 {
        fill: #b11116;
      }
    </style>
  </defs>
  <g id="Layer_1-2" data-name="Layer 1">
    <g>
      <path class="cls-1" d="M110.91,71.16c1.11-2.23,1.67-4.83,1.49-7.25-.37-3.9-3.16-7.06-7.06-7.99-3.9-.74-6.5.56-8.55,4.64-.74,1.67-1.49,3.53-2.23,5.2-9.29,17.84-23.22,29.54-43.47,32.7-4.46.74-8.92,0-13.19-1.67,15.98,2.42,28.42-3.53,38.64-15.61,5.76-6.69,9.29-14.31,12.45-22.48.74-2.04,1.67-4.46,5.02-2.6-2.79-4.64-7.25-4.64-9.66-.37-.93,1.49-1.49,3.16-2.23,4.83-3.34,8.73-7.43,17.28-14.49,23.78-8.17,7.8-17.65,11.7-29.17,9.29-4.27-.93-7.99-2.6-10.4-6.5-1.11-1.86-1.49-3.9-.37-5.76,1.12-1.86,2.79-2.6,5.02-2.23h1.67c-2.79-4.64-9.29-4.27-12.08.37-2.04,3.34-2.23,7.06-1.11,10.78,2.42,7.25,7.43,12.26,14.12,15.61,9.47,4.83,19.69,5.57,29.73,3.16,21.55-5.2,36.23-18.58,45.89-37.9Z"/>
      <path class="cls-1" d="M98.76,12.54c-2.2-.61-4.25-.82-6.31-1.03-5.7-.28-11.15.51-16.06,3.92-3.61,2.46-5.07,5.8-4.71,10.05.24,2.84-1.81,4.99-4.96,4.85,2.17-.14,1.98-1.47,1.37-2.81-.9-2.15-2.53-3.52-4.68-4.39-4.47-1.72-8.77-.51-13.3.82,2.53,1.75,3.5,4.39,4.69,6.75,2.75,5.6,7.78,7.15,13.14,3.93.54-.33,1.02-.57,1.51-.05,2.48,2,3.1,5.12,1.55,7.8-.33.64-.92,1.23-.07,1.87.76.57,1.56.28,2.22-.4,1.18-1.18,1.46-2.74,1.41-4.26-.03-2.53-1.19-4.72-2.89-6.59-.21-.31-1.18-.59-.43-1.2,1.16-.76,2.1-1.82,3.8-1.14,4.11,1.6,7.96.79,11.51-1.58,2.69-1.82,4.79-4.24,6.42-7,2.12-2.84,3.39-6.31,5.8-9.53Z"/>
      <path class="cls-1" d="M128.56,15.98c-.19-2.6-1.67-4.46-4.09-5.57-4.46-2.04-8.55-.93-12.45,1.86-4.83,3.53-7.62,8.36-9.66,13.75-1.67,4.09-2.97,8.36-4.46,12.63-.56,1.49-1.3,2.23-2.97,2.6-7.99,1.3-12.45,6.69-15.05,13.93-2.04,6.13-3.9,12.26-6.32,18.21,3.72-5.39,5.02-11.52,7.25-17.46,2.97-8.17,9.47-9.66,15.42-3.34,1.11,1.11,1.86,1.11,3.16.74,4.83-1.67,9.1-.74,12.45,2.97.74.74,1.11,1.67,2.04,2.79,0-5.76-1.3-10.59-5.57-14.12-1.12-.93-2.79-1.86-2.79-3.72,0-4.64.56-8.92,4.27-12.26,1.49-1.3,2.79-3.16,2.23-4.83-1.3-4.27,1.67-6.13,4.27-7.99,3.16-2.23,5.95-1.49,8.36,1.49.56.74.93,2.04,2.23,1.49,1.3-.74,1.86-1.86,1.67-3.16Z"/>
      <path class="cls-1" d="M68.31,57.51c-2.5-5-7.94-9.67-13.21-14.18-3.35-2.87-6.53-5.6-8.53-8.1-.58-.73-1.07-1.54-1.43-2.4,0,0,0,0,0-.01-3.86-9.27,2.43-19.19,2.49-19.29.49-.75-.12-1.68-1.02-1.63-4.1.25-9.61,1.97-12.84,8.62,0,0,1.17-6.49,8.05-9.21.34-.64.71-1.26,1.1-1.87l.34-.55-.33-.56c-.12-.21-3.02-5.11-7.21-8.13-.8-.57-1.88.15-1.65,1.1,0,.02.61,2.78-.07,7.73v.03c-.33,2.34-.95,4.62-1.89,6.79-3.48,7.99-9.44,14.5-16.22,21.9l-.39.43c-.91.99-1.82,1.96-2.7,2.9C5.4,49.01-1,55.86.13,66.6c1.18,11.15,7.84,15.83,11.7,17.63,1.63.76,3.34,1.25,5.05,1.54-1.08-2.62-1.23-5.65-.45-8.39-1.25-2.67-2.06-5.78-2.29-9.58-.65-10.67,6.35-19.21,6.35-19.21-5.13,9.96-5.16,17.96-2.27,25.1,1.82-2.46,4.72-4.16,8.71-4.16,8.73,0,12.25,8.05,10.6,14.58,4.63-1.59,7.65-5.88,8.3-10.12,1.73-11.29-4.76-17.27-4.76-17.27,0,0,9.12,5.85,7.26,19.95-.46,3.47-2.09,6.17-3.89,8.17,4.19-.37,14.36-7.41,11.71-19.5-2.13-9.72-10.56-14.51-13.1-23.34,5.53,10.74,17.66,15.38,17.31,28.26-.16,5.65-2.71,9.94-4.68,12.44,7-1.75,10.56-5.43,12.35-8.54,3.41-5.93,2.3-12.67.31-16.65Z"/>
    </g>
  </g>
</svg>