<?xml version="1.0" encoding="UTF-8"?>
<svg id="Layer_2" data-name="Layer 2" xmlns="http://www.w3.org/2000/svg" viewBox="0 0 8.35 15.66">
  <defs>
    <style>
      .cls-1 {
        fill: #f0f0f0;
      }
    </style>
  </defs>
  <g id="Layer_1-2" data-name="Layer 1">
    <g>
      <path class="cls-1" d="M7.94,5.88h0c-.23,0-.41.18-.41.41v1.35c0,1.94-1.61,3.52-3.55,3.41-1.77-.1-3.17-1.56-3.17-3.35v-1.41c0-.23-.18-.41-.41-.41h0c-.23,0-.41.18-.41.41v1.35c0,2.19,1.66,4.01,3.77,4.22v2.98h-1.7c-.23,0-.41.18-.41.41h0c0,.23.18.41.41.41h4.28c.23,0,.41-.18.41-.41h0c0-.23-.18-.41-.41-.41h-1.76v-2.98c2.11-.21,3.76-1.99,3.76-4.16v-1.41c0-.23-.18-.41-.41-.41Z"/>
      <path class="cls-1" d="M6.76,6.22v-.1s0-3.54,0-3.54c0-.69-.27-1.34-.76-1.82-.49-.49-1.14-.76-1.82-.76C2.75,0,1.6,1.16,1.6,2.58v5.02c0,1.42,1.16,2.58,2.58,2.58s2.58-1.16,2.58-2.58v-1.37Z"/>
    </g>
  </g>
</svg>