<?xml version="1.0" encoding="UTF-8"?>
<svg id="Layer_2" data-name="Layer 2" xmlns="http://www.w3.org/2000/svg" viewBox="0 0 37.69 24.45">
  <defs>
    <style>
      .cls-1 {
        fill: #fff;
      }
    </style>
  </defs>
  <g id="Layer_1-2" data-name="Layer 1">
    <g>
      <path class="cls-1" d="M28.21,16.31c-.24,0-.44-.19-.46-.44s.19-.47.44-.47c.04,0,2.38-.11,4.24-1.37h.01s.04-.04.05-.05c.2-.14.49-.09.63.11s.09.48-.11.63h-.01l-.05.05c-2.08,1.42-4.62,1.53-4.72,1.53h-.03Z"/>
      <path class="cls-1" d="M6.51,15.84c-.14,0-.28-.05-.39-.16l-1.42-1.43c-.22-.22-.22-.56,0-.77s.56-.22.77,0l1.43,1.43c.22.22.22.56,0,.77-.11.11-.25.16-.39.16Z"/>
      <path class="cls-1" d="M15.95,24.45c-.67,0-1.3-.27-1.78-.73l-.82-.82c-.22-.22-.22-.56,0-.77s.56-.22.77,0l.82.82c.27.27.62.42,1,.42s.73-.15,1-.42.42-.62.42-1c0-.19-.04-.37-.1-.53-.08-.18-.18-.33-.32-.47-.22-.22-.22-.56,0-.77s.56-.22.77,0h0l1.82,1.82c.27.27.62.42,1,.42s.73-.15,1-.42.42-.62.42-1-.15-.73-.42-1c-.22-.22-.22-.56,0-.77s.56-.22.77,0c.48.48.73,1.11.73,1.78s-.27,1.3-.73,1.78c-.48.48-1.11.73-1.78.73s-1.3-.27-1.78-.73l-.35-.35c-.09.49-.33.95-.7,1.32-.43.44-1.06.7-1.73.7Z"/>
      <path class="cls-1" d="M24.15,21.51c-.65,0-1.29-.24-1.78-.73l-4.49-4.49c-.22-.22-.22-.56,0-.77s.56-.22.77,0l4.49,4.49c.56.56,1.46.56,2.01,0s.56-1.46,0-2.01l-4.49-4.49c-.22-.22-.22-.56,0-.77s.56-.22.77,0l4.49,4.49c.48.48.73,1.11.73,1.78s-.27,1.3-.73,1.78c-.48.48-1.13.72-1.77.72Z"/>
      <path class="cls-1" d="M26.26,18.05c-.65,0-1.29-.24-1.78-.73-.22-.22-.22-.56,0-.77s.56-.22.77,0c.56.56,1.46.56,2.01,0,.22-.22.35-.48.39-.78h0c.01-.08.01-.15.01-.23,0-.38-.15-.73-.42-1l-7.1-7.12c-.51-.51-1.24-.7-1.92-.51-.35.1-.67.29-.91.56l-2.21,2.42h-.01c-.52.53-1.21.82-1.94.82s-1.43-.29-1.94-.81c-.86-.86-1.05-2.16-.48-3.23.72-1.34,1.96-3.2,3.8-4.35.01,0,.01-.01.03-.01,1.52-.95,3.18-1.27,4.93-.95.28.04,3.88.59,6.72,2.53l3.28-1.42c.28-.13.61.01.72.29s-.01.61-.29.72l-3.58,1.53c-.18.08-.38.05-.54-.06-2.71-1.96-6.47-2.52-6.5-2.52h-.03c-1.49-.27-2.9,0-4.18.81-.01,0-.01.01-.03.01-1.62,1.02-2.75,2.71-3.39,3.94-.34.65-.23,1.42.29,1.94.32.32.72.48,1.16.48s.85-.16,1.16-.48l2.21-2.4c.38-.42.87-.72,1.42-.87,1.06-.3,2.21,0,2.99.78l7.12,7.12c.48.48.73,1.11.73,1.78,0,.14-.01.28-.04.4-.09.52-.33,1-.71,1.38-.47.49-1.11.73-1.76.73Z"/>
      <path class="cls-1" d="M7.85,3.99c-.25,0-.48-.18-.53-.43-.06-.29.11-.57.4-.65l.18-.05.1-.03c3.07-.7,6.44-.63,6.81-.62.3.01.53.25.53.54s-.25.56-.57.54c-.14,0-3.54-.09-6.53.59l-.09.03c-.09.03-.2.05-.2.05-.03.01-.06.01-.1.01Z"/>
      <path class="cls-1" d="M7.64,17.75c-.49,0-.95-.19-1.29-.53s-.53-.81-.53-1.29.19-.95.53-1.29l1.52-1.52c.71-.71,1.87-.71,2.59,0s.71,1.87,0,2.59c-.22.22-.56.22-.77,0s-.22-.56,0-.77c.14-.14.22-.32.22-.52s-.08-.38-.22-.52-.33-.22-.52-.22-.38.08-.52.22l-1.52,1.52c-.14.14-.22.33-.22.52s.08.38.22.52.33.22.52.22c.2,0,.38-.08.52-.22.22-.22.56-.22.77,0s.22.56,0,.77c-.35.33-.82.52-1.3.52Z"/>
      <path class="cls-1" d="M8.9,20.1c-.49,0-.95-.19-1.29-.53s-.53-.81-.53-1.29.19-.95.53-1.29l2.06-2.06c.34-.34.81-.53,1.29-.53s.95.19,1.29.53c.71.71.71,1.87,0,2.59-.22.22-.56.22-.77,0s-.22-.56,0-.77c.14-.14.22-.32.22-.52s-.08-.38-.22-.52c-.14-.14-.33-.22-.52-.22-.2,0-.38.08-.52.22l-2.06,2.06c-.14.14-.22.32-.22.52s.08.38.22.52c.14.14.33.22.52.22.2,0,.38-.08.52-.22.22-.22.56-.22.77,0,.22.22.22.56,0,.77-.34.33-.8.52-1.29.52Z"/>
      <path class="cls-1" d="M10.12,22.52c-.47,0-.94-.18-1.29-.53-.71-.71-.71-1.87,0-2.59l2.66-2.66c.34-.34.81-.53,1.29-.53s.95.19,1.29.53c.71.71.71,1.87,0,2.59l-2.66,2.66c-.34.35-.81.53-1.29.53ZM12.78,17.29c-.2,0-.38.08-.52.22l-2.66,2.66c-.29.29-.29.75,0,1.04s.75.29,1.04,0l2.66-2.66c.29-.29.29-.75,0-1.04-.13-.14-.32-.22-.52-.22Z"/>
      <path class="cls-1" d="M12.71,23.56c-.47,0-.94-.18-1.29-.53-.71-.71-.71-1.87,0-2.59.22-.22.56-.22.77,0s.22.56,0,.77c-.29.29-.29.75,0,1.04s.75.29,1.04,0l1.89-1.89c.14-.14.22-.32.22-.52s-.08-.38-.22-.52-.33-.22-.52-.22c-.2,0-.38.08-.52.22-.22.22-.56.22-.77,0s-.22-.56,0-.77c.34-.34.81-.53,1.29-.53s.95.19,1.29.53.53.81.53,1.29-.19.95-.53,1.29l-1.89,1.89c-.35.37-.82.54-1.29.54Z"/>
      <path class="cls-1" d="M33.18,16.56c-.24,0-.47-.16-.53-.4l-3.86-14.39c-.04-.14-.01-.29.05-.42.08-.13.19-.22.33-.25L33.15.03c.29-.08.59.1.67.39l3.86,14.39c.04.14.01.29-.05.42s-.19.22-.33.25l-3.97,1.06c-.05,0-.1.01-.14.01ZM30,2.01l3.57,13.32,2.91-.78-3.57-13.32-2.91.78Z"/>
      <path class="cls-1" d="M4.51,16.55c-.05,0-.09,0-.14-.03l-3.97-1.06c-.14-.04-.27-.13-.33-.25-.08-.13-.09-.28-.05-.42L3.88.4c.04-.14.13-.27.25-.33.13-.08.28-.09.42-.05l3.97,1.06c.29.08.47.38.39.67l-3.87,14.39c-.06.25-.29.4-.53.4ZM1.21,14.55l2.91.78L7.69,2.01l-2.91-.78L1.21,14.55Z"/>
    </g>
  </g>
</svg>