<?xml version="1.0" encoding="UTF-8"?>
<svg id="Layer_2" data-name="Layer 2" xmlns="http://www.w3.org/2000/svg" viewBox="0 0 138.17 145.74">
  <defs>
    <style>
      .cls-1 {
        fill: #b11116;
      }
    </style>
  </defs>
  <g id="Layer_1-2" data-name="Layer 1">
    <g>
      <path class="cls-1" d="M77.73,58.68L19.56,11.04c-1.69-1.51-1.8-4.11-.25-5.76l3.77-4.01c1.55-1.65,4.15-1.71,5.77-.11l53.08,52.18"/>
      <g>
        <path class="cls-1" d="M70.54,134.69l-5.81-2.07c1.12-3.13.79-4.86.38-7.05-.46-2.47-1.04-5.55.64-10.25,1.68-4.7,4.07-6.72,6-8.34,1.7-1.43,3.04-2.57,4.16-5.7s.79-4.86.38-7.04c-.46-2.47-1.04-5.55.64-10.26.24-.67.49-1.27.74-1.82l5.6,2.59c-.18.4-.36.83-.53,1.31-1.12,3.13-.79,4.85-.38,7.04.46,2.47,1.04,5.55-.64,10.25-1.68,4.7-4.07,6.72-6,8.34-1.7,1.43-3.05,2.57-4.16,5.7-1.12,3.13-.79,4.86-.38,7.05.46,2.47,1.04,5.55-.64,10.25Z"/>
        <path class="cls-1" d="M94.31,66.79l-5.86-1.94c.96-2.89.64-4.55.25-6.66-.46-2.47-1.04-5.55.64-10.25,1.68-4.7,4.07-6.72,6-8.34,1.7-1.43,3.04-2.56,4.16-5.7l5.81,2.07c-1.68,4.7-4.07,6.72-6,8.34-1.7,1.43-3.04,2.56-4.16,5.7s-.79,4.86-.38,7.04c.45,2.37,1,5.33-.46,9.73Z"/>
        <path class="cls-1" d="M80.87,138.37l-5.81-2.07c1.12-3.13.79-4.86.38-7.04-.46-2.47-1.04-5.55.64-10.26,1.68-4.7,4.07-6.72,6-8.34,1.7-1.43,3.04-2.57,4.16-5.7,1.12-3.13.79-4.86.38-7.05-.42-2.26-.9-4.82.12-8.6l5.96,1.61c-.65,2.42-.37,3.94,0,5.86.46,2.47,1.04,5.55-.64,10.25-1.68,4.7-4.07,6.72-6,8.34-1.7,1.43-3.04,2.57-4.16,5.7-1.12,3.13-.79,4.86-.38,7.05.46,2.47,1.04,5.55-.64,10.25Z"/>
        <path class="cls-1" d="M103.69,72.9l-5.59-2.62c.19-.41.38-.87.56-1.36,1.11-3.12.79-4.85.38-7.04-.46-2.47-1.04-5.55.64-10.25,1.68-4.7,4.07-6.72,6-8.34,1.7-1.43,3.04-2.56,4.16-5.7l5.81,2.07c-1.68,4.7-4.07,6.72-6,8.34-1.7,1.43-3.04,2.56-4.16,5.7-1.12,3.13-.79,4.86-.38,7.04.46,2.47,1.04,5.55-.64,10.25-.25.7-.51,1.33-.78,1.9Z"/>
        <path class="cls-1" d="M91.2,142.06l-5.81-2.07c1.12-3.13.79-4.86.38-7.04-.46-2.47-1.04-5.55.64-10.25,1.68-4.7,4.07-6.72,6-8.34,1.7-1.43,3.04-2.57,4.16-5.7,1.12-3.13.79-4.86.38-7.05-.31-1.68-.67-3.58-.38-6.05l6.13.72c-.18,1.54.05,2.77.32,4.19.46,2.47,1.04,5.55-.64,10.25-1.68,4.7-4.07,6.72-6,8.34-1.7,1.43-3.04,2.57-4.16,5.7-1.12,3.13-.79,4.86-.38,7.04.46,2.47,1.04,5.55-.64,10.25Z"/>
        <path class="cls-1" d="M112.69,78.94l-5.11-3.46c.54-.8,1-1.73,1.4-2.87,1.12-3.13.79-4.86.38-7.05-.46-2.47-1.04-5.55.64-10.25,1.68-4.7,4.07-6.72,6-8.34,1.7-1.43,3.04-2.56,4.16-5.7l5.81,2.07c-1.68,4.7-4.07,6.72-6,8.34-1.7,1.43-3.04,2.56-4.16,5.7-1.12,3.13-.79,4.86-.38,7.04.46,2.47,1.04,5.55-.64,10.25-.58,1.63-1.27,3.02-2.1,4.26Z"/>
        <path class="cls-1" d="M101.54,145.74l-5.81-2.07c1.12-3.13.79-4.86.38-7.05-.46-2.47-1.04-5.55.64-10.25,1.68-4.7,4.07-6.72,6-8.34,1.7-1.43,3.04-2.57,4.16-5.7,1.12-3.13.79-4.86.38-7.05-.24-1.3-.52-2.78-.49-4.55l6.17.12c-.02,1.13.16,2.13.38,3.29.46,2.47,1.04,5.55-.64,10.25-1.68,4.7-4.07,6.72-6,8.34-1.7,1.43-3.04,2.57-4.16,5.7-1.12,3.13-.79,4.86-.38,7.05.46,2.47,1.04,5.55-.64,10.25Z"/>
        <path class="cls-1" d="M120.96,85.09l-4.32-4.4c.85-.83,1.83-2.01,2.68-4.39,1.12-3.13.79-4.86.38-7.04-.46-2.47-1.04-5.55.63-10.25,1.68-4.7,4.07-6.72,6-8.34,1.7-1.43,3.04-2.56,4.16-5.7l5.81,2.07c-1.68,4.7-4.07,6.72-6,8.34-1.7,1.43-3.04,2.56-4.16,5.7-1.12,3.13-.79,4.86-.38,7.04.46,2.47,1.04,5.55-.64,10.25-1,2.79-2.28,4.86-4.17,6.72Z"/>
      </g>
      <path class="cls-1" d="M135.99,101.15c1.91,1.22,2.72,3.47,1.79,5.01-.93,1.54-3.3,1.87-5.27.74L2.03,31.91c-1.97-1.13-2.62-3.64-1.44-5.58l2.85-4.7c1.17-1.94,3.7-2.53,5.61-1.31l126.94,80.84Z"/>
    </g>
  </g>
</svg>