<?xml version="1.0" encoding="UTF-8"?>
<svg id="Layer_2" data-name="Layer 2" xmlns="http://www.w3.org/2000/svg" xmlns:xlink="http://www.w3.org/1999/xlink" viewBox="0 0 307.18 701.88">
  <defs>
    <style>
      .cls-1 {
        fill: #741113;
      }

      .cls-2, .cls-3 {
        fill: none;
      }

      .cls-3 {
        stroke: #fff2b5;
        stroke-linecap: round;
        stroke-miterlimit: 10;
        stroke-width: 10.23px;
      }

      .cls-4 {
        clip-path: url(#clippath);
      }
    </style>
    <clipPath id="clippath">
      <rect class="cls-2" width="307.18" height="701.88"/>
    </clipPath>
  </defs>
  <g id="Layer_1-2" data-name="Layer 1">
    <g class="cls-4">
      <g>
        <g>
          <polygon class="cls-1" points="10.66 149.75 5.04 141.38 821.05 -383.72 847.22 -353.41 10.66 149.75"/>
          <polygon class="cls-1" points="35.96 183.63 30.34 175.27 856.66 -342.47 882.13 -312.97 35.96 183.63"/>
        </g>
        <g>
          <path class="cls-3" d="M67.97,97.28s11.4-11.8,11.47,20.84c.08,32.64-14.02,67.71-12.32,175.12,1.13,71.67,19.86,87.6,19.86,157,0,49.98-7.54,113.2-37.45,116.04-25.1,2.39-35.18-18.77-35.18-18.77"/>
          <path class="cls-3" d="M89.59,110.87s11.4-11.8,11.47,20.84c.08,32.64-19.58,57.71-17.88,165.13,1.13,71.67,17.91,98,25.42,166.99,1.64,15.04,11.7,83.3-29.16,106.24-21.99,12.35-8.07,38.21-8.07,38.21"/>
          <path class="cls-3" d="M113.21,145.22s11.4-10.76,11.47,18.99c.08,29.75-19.58,52.6-17.88,150.5,1.13,65.32,10.07,86.52,17.85,149.36,4.96,40.1,41.5,61.43-8.13,89.61-21.49,12.2-14.94,35.81-14.94,35.81"/>
          <path class="cls-3" d="M129.61,105.93s11.58-9.4,13.08,15.41c3.88,64.26-17.11,77.34,1.27,171.2,13.2,67.36-13.28,79.64-11.8,105.69,2.25,39.66,40.52,44.48,40.52,44.48"/>
          <path class="cls-3" d="M109.62,121.46s10.32,5.96,13.2-8.84c5.53-28.44-31.06-60.12-31.06-60.12"/>
          <path class="cls-3" d="M63.75,122.64s-2.11,31.92-7.38,44.94c-7.13,17.63-27.24,52.9-17.89,86.14,4.32,15.37,12.22,37.87,12.78,58.34,1.34,48.2-18.16,52.9-18.16,52.9"/>
          <path class="cls-3" d="M155.36,143.32s20.72-6.32,13.34,18.7c-7.38,25.03-22.06,58.54-11.81,69.89,12.94,14.33,22.02-.49,22.02-.49"/>
        </g>
      </g>
    </g>
  </g>
</svg>